<?xml version="1.0" encoding="utf-8" standalone="no"?>
<!DOCTYPE svg PUBLIC "-//W3C//DTD SVG 1.1//EN"
  "http://www.w3.org/Graphics/SVG/1.1/DTD/svg11.dtd">
<svg xmlns:xlink="http://www.w3.org/1999/xlink" width="571.960295pt" height="429.08375pt" viewBox="0 0 571.960295 429.08375" xmlns="http://www.w3.org/2000/svg" version="1.1">
 <metadata>
  <rdf:RDF xmlns:dc="http://purl.org/dc/elements/1.1/" xmlns:cc="http://creativecommons.org/ns#" xmlns:rdf="http://www.w3.org/1999/02/22-rdf-syntax-ns#">
   <cc:Work>
    <dc:type rdf:resource="http://purl.org/dc/dcmitype/StillImage"/>
    <dc:date>2026-08-01T17:01:16.408461</dc:date>
    <dc:format>image/svg+xml</dc:format>
    <dc:creator>
     <cc:Agent>
      <dc:title>Matplotlib v3.10.1, https://matplotlib.org/</dc:title>
     </cc:Agent>
    </dc:creator>
   </cc:Work>
  </rdf:RDF>
 </metadata>
 <defs>
  <style type="text/css">*{stroke-linejoin: round; stroke-linecap: butt}</style>
 </defs>
 <g id="figure_1">
  <g id="patch_1">
   <path d="M 0 429.08375 
L 571.960295 429.08375 
L 571.960295 0 
L 0 0 
z
" style="fill: #ffffff"/>
  </g>
  <g id="axes_1">
   <g id="patch_2">
    <path d="M 36.5425 396.89875 
L 564.368971 396.89875 
L 564.368971 19.27875 
L 36.5425 19.27875 
z
" style="fill: #ffffff"/>
   </g>
   <g id="matplotlib.axis_1">
    <g id="xtick_1">
     <g id="line2d_1">
      <defs>
       <path id="m82d2aeae4d" d="M 0 0 
L 0 3 
" style="stroke: #262626; stroke-width: 0.6"/>
      </defs>
      <g>
       <use xlink:href="#m82d2aeae4d" x="41.717269" y="396.89875" style="fill: #262626; stroke: #262626; stroke-width: 0.6"/>
      </g>
     </g>
     <g id="text_1">
      <text style="font-size: 7px; font-family: 'Helvetica', 'Arial', 'DejaVu Sans', 'Liberation Sans', sans-serif; text-anchor: middle; fill: #262626" x="41.717269" y="408.717656" transform="rotate(-0 41.717269 408.717656)">0.0</text>
     </g>
    </g>
    <g id="xtick_2">
     <g id="line2d_2">
      <g>
       <use xlink:href="#m82d2aeae4d" x="145.212656" y="396.89875" style="fill: #262626; stroke: #262626; stroke-width: 0.6"/>
      </g>
     </g>
     <g id="text_2">
      <text style="font-size: 7px; font-family: 'Helvetica', 'Arial', 'DejaVu Sans', 'Liberation Sans', sans-serif; text-anchor: middle; fill: #262626" x="145.212656" y="408.717656" transform="rotate(-0 145.212656 408.717656)">0.2</text>
     </g>
    </g>
    <g id="xtick_3">
     <g id="line2d_3">
      <g>
       <use xlink:href="#m82d2aeae4d" x="248.708042" y="396.89875" style="fill: #262626; stroke: #262626; stroke-width: 0.6"/>
      </g>
     </g>
     <g id="text_3">
      <text style="font-size: 7px; font-family: 'Helvetica', 'Arial', 'DejaVu Sans', 'Liberation Sans', sans-serif; text-anchor: middle; fill: #262626" x="248.708042" y="408.717656" transform="rotate(-0 248.708042 408.717656)">0.4</text>
     </g>
    </g>
    <g id="xtick_4">
     <g id="line2d_4">
      <g>
       <use xlink:href="#m82d2aeae4d" x="352.203428" y="396.89875" style="fill: #262626; stroke: #262626; stroke-width: 0.6"/>
      </g>
     </g>
     <g id="text_4">
      <text style="font-size: 7px; font-family: 'Helvetica', 'Arial', 'DejaVu Sans', 'Liberation Sans', sans-serif; text-anchor: middle; fill: #262626" x="352.203428" y="408.717656" transform="rotate(-0 352.203428 408.717656)">0.6</text>
     </g>
    </g>
    <g id="xtick_5">
     <g id="line2d_5">
      <g>
       <use xlink:href="#m82d2aeae4d" x="455.698815" y="396.89875" style="fill: #262626; stroke: #262626; stroke-width: 0.6"/>
      </g>
     </g>
     <g id="text_5">
      <text style="font-size: 7px; font-family: 'Helvetica', 'Arial', 'DejaVu Sans', 'Liberation Sans', sans-serif; text-anchor: middle; fill: #262626" x="455.698815" y="408.717656" transform="rotate(-0 455.698815 408.717656)">0.8</text>
     </g>
    </g>
    <g id="xtick_6">
     <g id="line2d_6">
      <g>
       <use xlink:href="#m82d2aeae4d" x="559.194201" y="396.89875" style="fill: #262626; stroke: #262626; stroke-width: 0.6"/>
      </g>
     </g>
     <g id="text_6">
      <text style="font-size: 7px; font-family: 'Helvetica', 'Arial', 'DejaVu Sans', 'Liberation Sans', sans-serif; text-anchor: middle; fill: #262626" x="559.194201" y="408.717656" transform="rotate(-0 559.194201 408.717656)">1.0</text>
     </g>
    </g>
    <g id="text_7">
     <text style="font-size: 9px; font-family: 'Helvetica', 'Arial', 'DejaVu Sans', 'Liberation Sans', sans-serif; text-anchor: middle; fill: #262626" x="300.455735" y="420.012031" transform="rotate(-0 300.455735 420.012031)">False Positive Rate</text>
    </g>
   </g>
   <g id="matplotlib.axis_2">
    <g id="ytick_1">
     <g id="line2d_7">
      <defs>
       <path id="m657dca0d70" d="M 0 0 
L -3 0 
" style="stroke: #262626; stroke-width: 0.6"/>
      </defs>
      <g>
       <use xlink:href="#m657dca0d70" x="36.5425" y="393.336297" style="fill: #262626; stroke: #262626; stroke-width: 0.6"/>
      </g>
     </g>
     <g id="text_8">
      <text style="font-size: 7px; font-family: 'Helvetica', 'Arial', 'DejaVu Sans', 'Liberation Sans', sans-serif; text-anchor: end; fill: #262626" x="30.0425" y="395.99575" transform="rotate(-0 30.0425 395.99575)">0.0</text>
     </g>
    </g>
    <g id="ytick_2">
     <g id="line2d_8">
      <g>
       <use xlink:href="#m657dca0d70" x="36.5425" y="322.087241" style="fill: #262626; stroke: #262626; stroke-width: 0.6"/>
      </g>
     </g>
     <g id="text_9">
      <text style="font-size: 7px; font-family: 'Helvetica', 'Arial', 'DejaVu Sans', 'Liberation Sans', sans-serif; text-anchor: end; fill: #262626" x="30.0425" y="324.746694" transform="rotate(-0 30.0425 324.746694)">0.2</text>
     </g>
    </g>
    <g id="ytick_3">
     <g id="line2d_9">
      <g>
       <use xlink:href="#m657dca0d70" x="36.5425" y="250.838184" style="fill: #262626; stroke: #262626; stroke-width: 0.6"/>
      </g>
     </g>
     <g id="text_10">
      <text style="font-size: 7px; font-family: 'Helvetica', 'Arial', 'DejaVu Sans', 'Liberation Sans', sans-serif; text-anchor: end; fill: #262626" x="30.0425" y="253.497637" transform="rotate(-0 30.0425 253.497637)">0.4</text>
     </g>
    </g>
    <g id="ytick_4">
     <g id="line2d_10">
      <g>
       <use xlink:href="#m657dca0d70" x="36.5425" y="179.589127" style="fill: #262626; stroke: #262626; stroke-width: 0.6"/>
      </g>
     </g>
     <g id="text_11">
      <text style="font-size: 7px; font-family: 'Helvetica', 'Arial', 'DejaVu Sans', 'Liberation Sans', sans-serif; text-anchor: end; fill: #262626" x="30.0425" y="182.24858" transform="rotate(-0 30.0425 182.24858)">0.6</text>
     </g>
    </g>
    <g id="ytick_5">
     <g id="line2d_11">
      <g>
       <use xlink:href="#m657dca0d70" x="36.5425" y="108.340071" style="fill: #262626; stroke: #262626; stroke-width: 0.6"/>
      </g>
     </g>
     <g id="text_12">
      <text style="font-size: 7px; font-family: 'Helvetica', 'Arial', 'DejaVu Sans', 'Liberation Sans', sans-serif; text-anchor: end; fill: #262626" x="30.0425" y="110.999524" transform="rotate(-0 30.0425 110.999524)">0.8</text>
     </g>
    </g>
    <g id="ytick_6">
     <g id="line2d_12">
      <g>
       <use xlink:href="#m657dca0d70" x="36.5425" y="37.091014" style="fill: #262626; stroke: #262626; stroke-width: 0.6"/>
      </g>
     </g>
     <g id="text_13">
      <text style="font-size: 7px; font-family: 'Helvetica', 'Arial', 'DejaVu Sans', 'Liberation Sans', sans-serif; text-anchor: end; fill: #262626" x="30.0425" y="39.750467" transform="rotate(-0 30.0425 39.750467)">1.0</text>
     </g>
    </g>
    <g id="text_14">
     <text style="font-size: 9px; font-family: 'Helvetica', 'Arial', 'DejaVu Sans', 'Liberation Sans', sans-serif; text-anchor: middle; fill: #262626" x="14.038594" y="208.08875" transform="rotate(-90 14.038594 208.08875)">True Positive Rate</text>
    </g>
   </g>
   <g id="line2d_13">
    <path d="M 41.717269 393.336297 
L 41.717269 393.052662 
L 41.717269 361.001932 
L 41.717269 360.434663 
L 41.717269 41.912805 
L 41.768414 41.912805 
L 41.768414 41.345536 
L 42.331 41.345536 
L 42.331 41.061901 
L 42.382144 41.061901 
L 42.382144 40.210997 
L 42.689009 40.210997 
L 42.689009 39.927362 
L 42.791297 39.927362 
L 42.791297 39.643727 
L 42.995874 39.643727 
L 42.995874 39.360092 
L 43.047018 39.360092 
L 43.047018 39.076458 
L 43.302739 39.076458 
L 43.302739 38.792823 
L 43.814181 38.792823 
L 43.814181 38.509188 
L 44.069902 38.509188 
L 44.069902 38.225553 
L 44.5302 38.225553 
L 44.5302 37.941918 
L 44.990498 37.941918 
L 44.990498 37.658284 
L 49.440042 37.658284 
L 49.440042 37.374649 
L 50.667503 37.374649 
L 50.667503 37.091014 
L 138.686657 37.091014 
L 138.788945 37.091014 
L 350.525899 37.091014 
L 350.628187 37.091014 
L 409.546296 37.091014 
L 409.648585 37.091014 
L 526.001621 37.091014 
L 526.103909 37.091014 
L 559.194201 37.091014 
" clip-path="url(#pe3a173c2bb)" style="fill: none; stroke: #bfe7dc; stroke-width: 1.6; stroke-linecap: round"/>
   </g>
   <g id="line2d_14">
    <path d="M 41.717269 393.336297 
L 41.717269 393.052662 
L 41.717269 43.330979 
L 41.97299 43.330979 
L 41.97299 42.480075 
L 42.024134 42.480075 
L 42.024134 42.19644 
L 42.177567 42.19644 
L 42.177567 40.210997 
L 42.279855 40.210997 
L 42.279855 39.927362 
L 42.484432 39.927362 
L 42.484432 39.643727 
L 42.586721 39.643727 
L 42.586721 39.360092 
L 42.689009 39.360092 
L 42.689009 39.076458 
L 42.94473 39.076458 
L 42.94473 38.792823 
L 43.711893 38.792823 
L 43.711893 38.509188 
L 43.967614 38.509188 
L 43.967614 38.225553 
L 44.121046 38.225553 
L 44.121046 37.941918 
L 45.50194 37.941918 
L 45.50194 37.658284 
L 46.064526 37.658284 
L 46.064526 37.374649 
L 51.383522 37.374649 
L 51.383522 37.091014 
L 559.194201 37.091014 
" clip-path="url(#pe3a173c2bb)" style="fill: none; stroke: #99d8c7; stroke-width: 1.6; stroke-linecap: round"/>
   </g>
   <g id="line2d_15">
    <path d="M 41.717269 393.336297 
L 41.717269 393.052662 
L 41.717269 41.629171 
L 41.819558 41.629171 
L 41.819558 41.061901 
L 41.921846 41.061901 
L 41.921846 39.643727 
L 42.024134 39.643727 
L 42.024134 39.076458 
L 42.075279 39.076458 
L 42.075279 38.792823 
L 42.279855 38.792823 
L 42.279855 38.509188 
L 42.586721 38.509188 
L 42.586721 38.225553 
L 43.91647 38.225553 
L 43.91647 37.941918 
L 44.223335 37.941918 
L 44.223335 37.658284 
L 44.581344 37.658284 
L 44.581344 37.374649 
L 51.536954 37.374649 
L 51.536954 37.091014 
L 559.194201 37.091014 
" clip-path="url(#pe3a173c2bb)" style="fill: none; stroke: #73cab2; stroke-width: 1.6; stroke-linecap: round"/>
   </g>
   <g id="line2d_16">
    <path d="M 41.717269 393.336297 
L 41.717269 393.052662 
L 41.717269 361.001932 
L 41.717269 360.434663 
L 41.717269 41.912805 
L 41.768414 41.912805 
L 41.768414 41.345536 
L 42.331 41.345536 
L 42.331 41.061901 
L 42.382144 41.061901 
L 42.382144 40.210997 
L 42.689009 40.210997 
L 42.689009 39.927362 
L 42.791297 39.927362 
L 42.791297 39.643727 
L 42.995874 39.643727 
L 42.995874 39.360092 
L 43.047018 39.360092 
L 43.047018 39.076458 
L 43.302739 39.076458 
L 43.302739 38.792823 
L 43.814181 38.792823 
L 43.814181 38.509188 
L 44.069902 38.509188 
L 44.069902 38.225553 
L 44.5302 38.225553 
L 44.5302 37.941918 
L 44.990498 37.941918 
L 44.990498 37.658284 
L 49.440042 37.658284 
L 49.440042 37.374649 
L 50.667503 37.374649 
L 50.667503 37.091014 
L 138.686657 37.091014 
L 138.788945 37.091014 
L 350.525899 37.091014 
L 350.628187 37.091014 
L 409.546296 37.091014 
L 409.648585 37.091014 
L 526.001621 37.091014 
L 526.103909 37.091014 
L 559.194201 37.091014 
" clip-path="url(#pe3a173c2bb)" style="fill: none; stroke: #4dbb9d; stroke-width: 1.6; stroke-linecap: round"/>
   </g>
   <g id="line2d_17">
    <path d="M 41.717269 393.336297 
L 41.717269 393.052662 
L 41.717269 44.181884 
L 41.768414 44.181884 
L 41.768414 43.614614 
L 41.819558 43.614614 
L 41.819558 42.19644 
L 41.921846 42.19644 
L 41.921846 41.912805 
L 42.075279 41.912805 
L 42.075279 41.629171 
L 42.126423 41.629171 
L 42.126423 41.061901 
L 42.228711 41.061901 
L 42.228711 40.778266 
L 42.279855 40.778266 
L 42.279855 40.210997 
L 42.484432 40.210997 
L 42.484432 39.927362 
L 42.689009 39.927362 
L 42.689009 39.643727 
L 43.814181 39.643727 
L 43.814181 39.076458 
L 43.91647 39.076458 
L 43.91647 38.792823 
L 45.195074 38.792823 
L 45.195074 38.509188 
L 45.297363 38.509188 
L 45.297363 38.225553 
L 46.371391 38.225553 
L 46.371391 37.941918 
L 47.956861 37.941918 
L 47.956861 37.658284 
L 48.008005 37.658284 
L 48.008005 37.374649 
L 54.554461 37.374649 
L 54.554461 37.091014 
L 559.194201 37.091014 
" clip-path="url(#pe3a173c2bb)" style="fill: none; stroke: #26ad88; stroke-width: 1.6; stroke-linecap: round"/>
   </g>
   <g id="line2d_18">
    <path d="M 41.717269 393.336297 
L 41.717269 393.052662 
L 41.717269 41.912805 
L 41.870702 41.912805 
L 41.870702 40.210997 
L 42.024134 40.210997 
L 42.024134 39.643727 
L 42.126423 39.643727 
L 42.126423 39.360092 
L 42.331 39.360092 
L 42.331 38.509188 
L 43.91647 38.509188 
L 43.91647 38.225553 
L 44.325623 38.225553 
L 44.325623 37.941918 
L 45.399651 37.941918 
L 45.399651 37.658284 
L 45.962237 37.658284 
L 45.962237 37.374649 
L 56.85595 37.374649 
L 56.85595 37.091014 
L 559.194201 37.091014 
" clip-path="url(#pe3a173c2bb)" style="fill: none; stroke: #009e73; stroke-width: 1.6; stroke-linecap: round"/>
   </g>
   <g id="line2d_19">
    <path d="M 41.717269 393.336297 
L 559.194201 37.091014 
" clip-path="url(#pe3a173c2bb)" style="fill: none; stroke-dasharray: 2.96,1.28; stroke-dashoffset: 0; stroke: #808080; stroke-width: 0.8"/>
   </g>
   <g id="patch_3">
    <path d="M 36.5425 396.89875 
L 36.5425 19.27875 
" style="fill: none; stroke: #262626; stroke-width: 0.6; stroke-linejoin: miter; stroke-linecap: square"/>
   </g>
   <g id="patch_4">
    <path d="M 36.5425 396.89875 
L 564.368971 396.89875 
" style="fill: none; stroke: #262626; stroke-width: 0.6; stroke-linejoin: miter; stroke-linecap: square"/>
   </g>
   <g id="text_15">
    <text style="font-size: 8px; font-family: 'Helvetica', 'Arial', 'DejaVu Sans', 'Liberation Sans', sans-serif; text-anchor: middle; fill: #262626" x="300.455735" y="13.27875" transform="rotate(-0 300.455735 13.27875)">TPS — ROC curve</text>
   </g>
   <g id="legend_1">
    <g id="line2d_20">
     <path d="M 473.063814 336.019531 
L 477.263814 336.019531 
L 481.463814 336.019531 
" style="fill: none; stroke: #bfe7dc; stroke-width: 1.6; stroke-linecap: round"/>
    </g>
    <g id="text_16">
     <text style="font-size: 7px; font-family: 'Helvetica', 'Arial', 'DejaVu Sans', 'Liberation Sans', sans-serif; text-anchor: start; fill: #262626" x="484.963814" y="338.469531" transform="rotate(-0 484.963814 338.469531)">Ankh Base</text>
    </g>
    <g id="line2d_21">
     <path d="M 473.063814 346.294219 
L 477.263814 346.294219 
L 481.463814 346.294219 
" style="fill: none; stroke: #99d8c7; stroke-width: 1.6; stroke-linecap: round"/>
    </g>
    <g id="text_17">
     <text style="font-size: 7px; font-family: 'Helvetica', 'Arial', 'DejaVu Sans', 'Liberation Sans', sans-serif; text-anchor: start; fill: #262626" x="484.963814" y="348.744219" transform="rotate(-0 484.963814 348.744219)">ESM-1v</text>
    </g>
    <g id="line2d_22">
     <path d="M 473.063814 356.568906 
L 477.263814 356.568906 
L 481.463814 356.568906 
" style="fill: none; stroke: #73cab2; stroke-width: 1.6; stroke-linecap: round"/>
    </g>
    <g id="text_18">
     <text style="font-size: 7px; font-family: 'Helvetica', 'Arial', 'DejaVu Sans', 'Liberation Sans', sans-serif; text-anchor: start; fill: #262626" x="484.963814" y="359.018906" transform="rotate(-0 484.963814 359.018906)">ESM-2</text>
    </g>
    <g id="line2d_23">
     <path d="M 473.063814 366.843594 
L 477.263814 366.843594 
L 481.463814 366.843594 
" style="fill: none; stroke: #4dbb9d; stroke-width: 1.6; stroke-linecap: round"/>
    </g>
    <g id="text_19">
     <text style="font-size: 7px; font-family: 'Helvetica', 'Arial', 'DejaVu Sans', 'Liberation Sans', sans-serif; text-anchor: start; fill: #262626" x="484.963814" y="369.293594" transform="rotate(-0 484.963814 369.293594)">Ankh Base (TPS)</text>
    </g>
    <g id="line2d_24">
     <path d="M 473.063814 377.118281 
L 477.263814 377.118281 
L 481.463814 377.118281 
" style="fill: none; stroke: #26ad88; stroke-width: 1.6; stroke-linecap: round"/>
    </g>
    <g id="text_20">
     <text style="font-size: 7px; font-family: 'Helvetica', 'Arial', 'DejaVu Sans', 'Liberation Sans', sans-serif; text-anchor: start; fill: #262626" x="484.963814" y="379.568281" transform="rotate(-0 484.963814 379.568281)">ESM-1v subseq (TPS)</text>
    </g>
    <g id="line2d_25">
     <path d="M 473.063814 387.392969 
L 477.263814 387.392969 
L 481.463814 387.392969 
" style="fill: none; stroke: #009e73; stroke-width: 1.6; stroke-linecap: round"/>
    </g>
    <g id="text_21">
     <text style="font-size: 7px; font-family: 'Helvetica', 'Arial', 'DejaVu Sans', 'Liberation Sans', sans-serif; text-anchor: start; fill: #262626" x="484.963814" y="389.842969" transform="rotate(-0 484.963814 389.842969)">Ankh Large</text>
    </g>
   </g>
  </g>
 </g>
 <defs>
  <clipPath id="pe3a173c2bb">
   <rect x="36.5425" y="19.27875" width="527.826471" height="377.62"/>
  </clipPath>
 </defs>
</svg>
