<?xml version="1.0" encoding="utf-8" standalone="no"?>
<!DOCTYPE svg PUBLIC "-//W3C//DTD SVG 1.1//EN"
  "http://www.w3.org/Graphics/SVG/1.1/DTD/svg11.dtd">
<svg xmlns:xlink="http://www.w3.org/1999/xlink" width="307.543125pt" height="298.432875pt" viewBox="0 0 307.543125 298.432875" xmlns="http://www.w3.org/2000/svg" version="1.1">
 <metadata>
  <rdf:RDF xmlns:dc="http://purl.org/dc/elements/1.1/" xmlns:cc="http://creativecommons.org/ns#" xmlns:rdf="http://www.w3.org/1999/02/22-rdf-syntax-ns#">
   <cc:Work>
    <dc:type rdf:resource="http://purl.org/dc/dcmitype/StillImage"/>
    <dc:date>2026-07-27T18:16:44.611735</dc:date>
    <dc:format>image/svg+xml</dc:format>
    <dc:creator>
     <cc:Agent>
      <dc:title>Matplotlib v3.10.1, https://matplotlib.org/</dc:title>
     </cc:Agent>
    </dc:creator>
   </cc:Work>
  </rdf:RDF>
 </metadata>
 <defs>
  <style type="text/css">*{stroke-linejoin: round; stroke-linecap: butt}</style>
 </defs>
 <g id="figure_1">
  <g id="patch_1">
   <path d="M 0 298.432875 
L 307.543125 298.432875 
L 307.543125 0 
L 0 0 
z
" style="fill: #ffffff"/>
  </g>
  <g id="axes_1">
   <g id="patch_2">
    <path d="M 36.5425 266.247875 
L 268.9145 266.247875 
L 268.9145 33.875875 
L 36.5425 33.875875 
z
" style="fill: #ffffff"/>
   </g>
   <g id="matplotlib.axis_1">
    <g id="xtick_1">
     <g id="line2d_1">
      <path d="M 41.011192 266.247875 
L 41.011192 33.875875 
" clip-path="url(#p4c516e04bd)" style="fill: none; stroke-dasharray: 0.4,0.66; stroke-dashoffset: 0; stroke: #d9d9d9; stroke-opacity: 0.6; stroke-width: 0.4"/>
     </g>
     <g id="line2d_2">
      <defs>
       <path id="m3271cc3d73" d="M 0 0 
L 0 3 
" style="stroke: #262626; stroke-width: 0.6"/>
      </defs>
      <g>
       <use xlink:href="#m3271cc3d73" x="41.011192" y="266.247875" style="fill: #262626; stroke: #262626; stroke-width: 0.6"/>
      </g>
     </g>
     <g id="text_1">
      <text style="font-size: 7px; font-family: 'Helvetica', 'Arial', 'DejaVu Sans', 'Liberation Sans', sans-serif; text-anchor: middle; fill: #262626" x="41.011192" y="278.066781" transform="rotate(-0 41.011192 278.066781)">0.0</text>
     </g>
    </g>
    <g id="xtick_2">
     <g id="line2d_3">
      <path d="M 85.698115 266.247875 
L 85.698115 33.875875 
" clip-path="url(#p4c516e04bd)" style="fill: none; stroke-dasharray: 0.4,0.66; stroke-dashoffset: 0; stroke: #d9d9d9; stroke-opacity: 0.6; stroke-width: 0.4"/>
     </g>
     <g id="line2d_4">
      <g>
       <use xlink:href="#m3271cc3d73" x="85.698115" y="266.247875" style="fill: #262626; stroke: #262626; stroke-width: 0.6"/>
      </g>
     </g>
     <g id="text_2">
      <text style="font-size: 7px; font-family: 'Helvetica', 'Arial', 'DejaVu Sans', 'Liberation Sans', sans-serif; text-anchor: middle; fill: #262626" x="85.698115" y="278.066781" transform="rotate(-0 85.698115 278.066781)">0.2</text>
     </g>
    </g>
    <g id="xtick_3">
     <g id="line2d_5">
      <path d="M 130.385038 266.247875 
L 130.385038 33.875875 
" clip-path="url(#p4c516e04bd)" style="fill: none; stroke-dasharray: 0.4,0.66; stroke-dashoffset: 0; stroke: #d9d9d9; stroke-opacity: 0.6; stroke-width: 0.4"/>
     </g>
     <g id="line2d_6">
      <g>
       <use xlink:href="#m3271cc3d73" x="130.385038" y="266.247875" style="fill: #262626; stroke: #262626; stroke-width: 0.6"/>
      </g>
     </g>
     <g id="text_3">
      <text style="font-size: 7px; font-family: 'Helvetica', 'Arial', 'DejaVu Sans', 'Liberation Sans', sans-serif; text-anchor: middle; fill: #262626" x="130.385038" y="278.066781" transform="rotate(-0 130.385038 278.066781)">0.4</text>
     </g>
    </g>
    <g id="xtick_4">
     <g id="line2d_7">
      <path d="M 175.071962 266.247875 
L 175.071962 33.875875 
" clip-path="url(#p4c516e04bd)" style="fill: none; stroke-dasharray: 0.4,0.66; stroke-dashoffset: 0; stroke: #d9d9d9; stroke-opacity: 0.6; stroke-width: 0.4"/>
     </g>
     <g id="line2d_8">
      <g>
       <use xlink:href="#m3271cc3d73" x="175.071962" y="266.247875" style="fill: #262626; stroke: #262626; stroke-width: 0.6"/>
      </g>
     </g>
     <g id="text_4">
      <text style="font-size: 7px; font-family: 'Helvetica', 'Arial', 'DejaVu Sans', 'Liberation Sans', sans-serif; text-anchor: middle; fill: #262626" x="175.071962" y="278.066781" transform="rotate(-0 175.071962 278.066781)">0.6</text>
     </g>
    </g>
    <g id="xtick_5">
     <g id="line2d_9">
      <path d="M 219.758885 266.247875 
L 219.758885 33.875875 
" clip-path="url(#p4c516e04bd)" style="fill: none; stroke-dasharray: 0.4,0.66; stroke-dashoffset: 0; stroke: #d9d9d9; stroke-opacity: 0.6; stroke-width: 0.4"/>
     </g>
     <g id="line2d_10">
      <g>
       <use xlink:href="#m3271cc3d73" x="219.758885" y="266.247875" style="fill: #262626; stroke: #262626; stroke-width: 0.6"/>
      </g>
     </g>
     <g id="text_5">
      <text style="font-size: 7px; font-family: 'Helvetica', 'Arial', 'DejaVu Sans', 'Liberation Sans', sans-serif; text-anchor: middle; fill: #262626" x="219.758885" y="278.066781" transform="rotate(-0 219.758885 278.066781)">0.8</text>
     </g>
    </g>
    <g id="xtick_6">
     <g id="line2d_11">
      <path d="M 264.445808 266.247875 
L 264.445808 33.875875 
" clip-path="url(#p4c516e04bd)" style="fill: none; stroke-dasharray: 0.4,0.66; stroke-dashoffset: 0; stroke: #d9d9d9; stroke-opacity: 0.6; stroke-width: 0.4"/>
     </g>
     <g id="line2d_12">
      <g>
       <use xlink:href="#m3271cc3d73" x="264.445808" y="266.247875" style="fill: #262626; stroke: #262626; stroke-width: 0.6"/>
      </g>
     </g>
     <g id="text_6">
      <text style="font-size: 7px; font-family: 'Helvetica', 'Arial', 'DejaVu Sans', 'Liberation Sans', sans-serif; text-anchor: middle; fill: #262626" x="264.445808" y="278.066781" transform="rotate(-0 264.445808 278.066781)">1.0</text>
     </g>
    </g>
    <g id="text_7">
     <text style="font-size: 9px; font-family: 'Helvetica', 'Arial', 'DejaVu Sans', 'Liberation Sans', sans-serif; text-anchor: middle; fill: #262626" x="152.7285" y="289.361156" transform="rotate(-0 152.7285 289.361156)">Predicted probability (bin mean)</text>
    </g>
   </g>
   <g id="matplotlib.axis_2">
    <g id="ytick_1">
     <g id="line2d_13">
      <path d="M 36.5425 261.779183 
L 268.9145 261.779183 
" clip-path="url(#p4c516e04bd)" style="fill: none; stroke-dasharray: 0.4,0.66; stroke-dashoffset: 0; stroke: #d9d9d9; stroke-opacity: 0.6; stroke-width: 0.4"/>
     </g>
     <g id="line2d_14">
      <defs>
       <path id="m3f0d0351e1" d="M 0 0 
L -3 0 
" style="stroke: #262626; stroke-width: 0.6"/>
      </defs>
      <g>
       <use xlink:href="#m3f0d0351e1" x="36.5425" y="261.779183" style="fill: #262626; stroke: #262626; stroke-width: 0.6"/>
      </g>
     </g>
     <g id="text_8">
      <text style="font-size: 7px; font-family: 'Helvetica', 'Arial', 'DejaVu Sans', 'Liberation Sans', sans-serif; text-anchor: end; fill: #262626" x="30.0425" y="264.438636" transform="rotate(-0 30.0425 264.438636)">0.0</text>
     </g>
    </g>
    <g id="ytick_2">
     <g id="line2d_15">
      <path d="M 36.5425 217.09226 
L 268.9145 217.09226 
" clip-path="url(#p4c516e04bd)" style="fill: none; stroke-dasharray: 0.4,0.66; stroke-dashoffset: 0; stroke: #d9d9d9; stroke-opacity: 0.6; stroke-width: 0.4"/>
     </g>
     <g id="line2d_16">
      <g>
       <use xlink:href="#m3f0d0351e1" x="36.5425" y="217.09226" style="fill: #262626; stroke: #262626; stroke-width: 0.6"/>
      </g>
     </g>
     <g id="text_9">
      <text style="font-size: 7px; font-family: 'Helvetica', 'Arial', 'DejaVu Sans', 'Liberation Sans', sans-serif; text-anchor: end; fill: #262626" x="30.0425" y="219.751713" transform="rotate(-0 30.0425 219.751713)">0.2</text>
     </g>
    </g>
    <g id="ytick_3">
     <g id="line2d_17">
      <path d="M 36.5425 172.405337 
L 268.9145 172.405337 
" clip-path="url(#p4c516e04bd)" style="fill: none; stroke-dasharray: 0.4,0.66; stroke-dashoffset: 0; stroke: #d9d9d9; stroke-opacity: 0.6; stroke-width: 0.4"/>
     </g>
     <g id="line2d_18">
      <g>
       <use xlink:href="#m3f0d0351e1" x="36.5425" y="172.405337" style="fill: #262626; stroke: #262626; stroke-width: 0.6"/>
      </g>
     </g>
     <g id="text_10">
      <text style="font-size: 7px; font-family: 'Helvetica', 'Arial', 'DejaVu Sans', 'Liberation Sans', sans-serif; text-anchor: end; fill: #262626" x="30.0425" y="175.06479" transform="rotate(-0 30.0425 175.06479)">0.4</text>
     </g>
    </g>
    <g id="ytick_4">
     <g id="line2d_19">
      <path d="M 36.5425 127.718413 
L 268.9145 127.718413 
" clip-path="url(#p4c516e04bd)" style="fill: none; stroke-dasharray: 0.4,0.66; stroke-dashoffset: 0; stroke: #d9d9d9; stroke-opacity: 0.6; stroke-width: 0.4"/>
     </g>
     <g id="line2d_20">
      <g>
       <use xlink:href="#m3f0d0351e1" x="36.5425" y="127.718413" style="fill: #262626; stroke: #262626; stroke-width: 0.6"/>
      </g>
     </g>
     <g id="text_11">
      <text style="font-size: 7px; font-family: 'Helvetica', 'Arial', 'DejaVu Sans', 'Liberation Sans', sans-serif; text-anchor: end; fill: #262626" x="30.0425" y="130.377867" transform="rotate(-0 30.0425 130.377867)">0.6</text>
     </g>
    </g>
    <g id="ytick_5">
     <g id="line2d_21">
      <path d="M 36.5425 83.03149 
L 268.9145 83.03149 
" clip-path="url(#p4c516e04bd)" style="fill: none; stroke-dasharray: 0.4,0.66; stroke-dashoffset: 0; stroke: #d9d9d9; stroke-opacity: 0.6; stroke-width: 0.4"/>
     </g>
     <g id="line2d_22">
      <g>
       <use xlink:href="#m3f0d0351e1" x="36.5425" y="83.03149" style="fill: #262626; stroke: #262626; stroke-width: 0.6"/>
      </g>
     </g>
     <g id="text_12">
      <text style="font-size: 7px; font-family: 'Helvetica', 'Arial', 'DejaVu Sans', 'Liberation Sans', sans-serif; text-anchor: end; fill: #262626" x="30.0425" y="85.690944" transform="rotate(-0 30.0425 85.690944)">0.8</text>
     </g>
    </g>
    <g id="ytick_6">
     <g id="line2d_23">
      <path d="M 36.5425 38.344567 
L 268.9145 38.344567 
" clip-path="url(#p4c516e04bd)" style="fill: none; stroke-dasharray: 0.4,0.66; stroke-dashoffset: 0; stroke: #d9d9d9; stroke-opacity: 0.6; stroke-width: 0.4"/>
     </g>
     <g id="line2d_24">
      <g>
       <use xlink:href="#m3f0d0351e1" x="36.5425" y="38.344567" style="fill: #262626; stroke: #262626; stroke-width: 0.6"/>
      </g>
     </g>
     <g id="text_13">
      <text style="font-size: 7px; font-family: 'Helvetica', 'Arial', 'DejaVu Sans', 'Liberation Sans', sans-serif; text-anchor: end; fill: #262626" x="30.0425" y="41.00402" transform="rotate(-0 30.0425 41.00402)">1.0</text>
     </g>
    </g>
    <g id="text_14">
     <text style="font-size: 9px; font-family: 'Helvetica', 'Arial', 'DejaVu Sans', 'Liberation Sans', sans-serif; text-anchor: middle; fill: #262626" x="14.038594" y="150.061875" transform="rotate(-90 14.038594 150.061875)">Empirical positive rate</text>
    </g>
   </g>
   <g id="line2d_25">
    <path d="M 41.011192 261.779183 
L 264.445808 38.344567 
" clip-path="url(#p4c516e04bd)" style="fill: none; stroke-dasharray: 2.96,1.28; stroke-dashoffset: 0; stroke: #808080; stroke-width: 0.8"/>
   </g>
   <g id="LineCollection_1">
    <path d="M 41.048706 261.779183 
L 41.048706 261.027462 
" clip-path="url(#p4c516e04bd)" style="fill: none; stroke: #4c4c4c; stroke-opacity: 0.7; stroke-width: 0.8"/>
    <path d="M 41.083438 261.779183 
L 41.083438 261.026803 
" clip-path="url(#p4c516e04bd)" style="fill: none; stroke: #4c4c4c; stroke-opacity: 0.7; stroke-width: 0.8"/>
    <path d="M 41.109616 261.779183 
L 41.109616 261.026803 
" clip-path="url(#p4c516e04bd)" style="fill: none; stroke: #4c4c4c; stroke-opacity: 0.7; stroke-width: 0.8"/>
    <path d="M 41.137265 261.779183 
L 41.137265 261.027462 
" clip-path="url(#p4c516e04bd)" style="fill: none; stroke: #4c4c4c; stroke-opacity: 0.7; stroke-width: 0.8"/>
    <path d="M 41.169373 261.779183 
L 41.169373 261.026803 
" clip-path="url(#p4c516e04bd)" style="fill: none; stroke: #4c4c4c; stroke-opacity: 0.7; stroke-width: 0.8"/>
    <path d="M 41.211011 261.779183 
L 41.211011 261.026803 
" clip-path="url(#p4c516e04bd)" style="fill: none; stroke: #4c4c4c; stroke-opacity: 0.7; stroke-width: 0.8"/>
    <path d="M 41.268362 261.779183 
L 41.268362 261.027462 
" clip-path="url(#p4c516e04bd)" style="fill: none; stroke: #4c4c4c; stroke-opacity: 0.7; stroke-width: 0.8"/>
    <path d="M 41.35881 261.779183 
L 41.35881 261.026803 
" clip-path="url(#p4c516e04bd)" style="fill: none; stroke: #4c4c4c; stroke-opacity: 0.7; stroke-width: 0.8"/>
    <path d="M 41.553392 261.744491 
L 41.553392 260.669793 
" clip-path="url(#p4c516e04bd)" style="fill: none; stroke: #4c4c4c; stroke-opacity: 0.7; stroke-width: 0.8"/>
    <path d="M 96.986152 209.123586 
L 96.986152 197.73879 
" clip-path="url(#p4c516e04bd)" style="fill: none; stroke: #4c4c4c; stroke-opacity: 0.7; stroke-width: 0.8"/>
    <path d="M 256.101351 215.630262 
L 256.101351 38.344567 
" clip-path="url(#p4c516e04bd)" style="fill: none; stroke: #4c4c4c; stroke-opacity: 0.7; stroke-width: 0.8"/>
   </g>
   <g id="line2d_26">
    <defs>
     <path id="m894137c732" d="M 2 0 
L -2 -0 
" style="stroke: #4c4c4c; stroke-opacity: 0.7"/>
    </defs>
    <g clip-path="url(#p4c516e04bd)">
     <use xlink:href="#m894137c732" x="41.048706" y="261.779183" style="fill: #4c4c4c; fill-opacity: 0.7; stroke: #4c4c4c; stroke-opacity: 0.7"/>
     <use xlink:href="#m894137c732" x="41.083438" y="261.779183" style="fill: #4c4c4c; fill-opacity: 0.7; stroke: #4c4c4c; stroke-opacity: 0.7"/>
     <use xlink:href="#m894137c732" x="41.109616" y="261.779183" style="fill: #4c4c4c; fill-opacity: 0.7; stroke: #4c4c4c; stroke-opacity: 0.7"/>
     <use xlink:href="#m894137c732" x="41.137265" y="261.779183" style="fill: #4c4c4c; fill-opacity: 0.7; stroke: #4c4c4c; stroke-opacity: 0.7"/>
     <use xlink:href="#m894137c732" x="41.169373" y="261.779183" style="fill: #4c4c4c; fill-opacity: 0.7; stroke: #4c4c4c; stroke-opacity: 0.7"/>
     <use xlink:href="#m894137c732" x="41.211011" y="261.779183" style="fill: #4c4c4c; fill-opacity: 0.7; stroke: #4c4c4c; stroke-opacity: 0.7"/>
     <use xlink:href="#m894137c732" x="41.268362" y="261.779183" style="fill: #4c4c4c; fill-opacity: 0.7; stroke: #4c4c4c; stroke-opacity: 0.7"/>
     <use xlink:href="#m894137c732" x="41.35881" y="261.779183" style="fill: #4c4c4c; fill-opacity: 0.7; stroke: #4c4c4c; stroke-opacity: 0.7"/>
     <use xlink:href="#m894137c732" x="41.553392" y="261.744491" style="fill: #4c4c4c; fill-opacity: 0.7; stroke: #4c4c4c; stroke-opacity: 0.7"/>
     <use xlink:href="#m894137c732" x="96.986152" y="209.123586" style="fill: #4c4c4c; fill-opacity: 0.7; stroke: #4c4c4c; stroke-opacity: 0.7"/>
     <use xlink:href="#m894137c732" x="256.101351" y="215.630262" style="fill: #4c4c4c; fill-opacity: 0.7; stroke: #4c4c4c; stroke-opacity: 0.7"/>
    </g>
   </g>
   <g id="line2d_27">
    <g clip-path="url(#p4c516e04bd)">
     <use xlink:href="#m894137c732" x="41.048706" y="261.027462" style="fill: #4c4c4c; fill-opacity: 0.7; stroke: #4c4c4c; stroke-opacity: 0.7"/>
     <use xlink:href="#m894137c732" x="41.083438" y="261.026803" style="fill: #4c4c4c; fill-opacity: 0.7; stroke: #4c4c4c; stroke-opacity: 0.7"/>
     <use xlink:href="#m894137c732" x="41.109616" y="261.026803" style="fill: #4c4c4c; fill-opacity: 0.7; stroke: #4c4c4c; stroke-opacity: 0.7"/>
     <use xlink:href="#m894137c732" x="41.137265" y="261.027462" style="fill: #4c4c4c; fill-opacity: 0.7; stroke: #4c4c4c; stroke-opacity: 0.7"/>
     <use xlink:href="#m894137c732" x="41.169373" y="261.026803" style="fill: #4c4c4c; fill-opacity: 0.7; stroke: #4c4c4c; stroke-opacity: 0.7"/>
     <use xlink:href="#m894137c732" x="41.211011" y="261.026803" style="fill: #4c4c4c; fill-opacity: 0.7; stroke: #4c4c4c; stroke-opacity: 0.7"/>
     <use xlink:href="#m894137c732" x="41.268362" y="261.027462" style="fill: #4c4c4c; fill-opacity: 0.7; stroke: #4c4c4c; stroke-opacity: 0.7"/>
     <use xlink:href="#m894137c732" x="41.35881" y="261.026803" style="fill: #4c4c4c; fill-opacity: 0.7; stroke: #4c4c4c; stroke-opacity: 0.7"/>
     <use xlink:href="#m894137c732" x="41.553392" y="260.669793" style="fill: #4c4c4c; fill-opacity: 0.7; stroke: #4c4c4c; stroke-opacity: 0.7"/>
     <use xlink:href="#m894137c732" x="96.986152" y="197.73879" style="fill: #4c4c4c; fill-opacity: 0.7; stroke: #4c4c4c; stroke-opacity: 0.7"/>
     <use xlink:href="#m894137c732" x="256.101351" y="38.344567" style="fill: #4c4c4c; fill-opacity: 0.7; stroke: #4c4c4c; stroke-opacity: 0.7"/>
    </g>
   </g>
   <g id="patch_3">
    <path d="M 36.5425 266.247875 
L 36.5425 33.875875 
" style="fill: none; stroke: #262626; stroke-width: 0.6; stroke-linejoin: miter; stroke-linecap: square"/>
   </g>
   <g id="patch_4">
    <path d="M 36.5425 266.247875 
L 268.9145 266.247875 
" style="fill: none; stroke: #262626; stroke-width: 0.6; stroke-linejoin: miter; stroke-linecap: square"/>
   </g>
   <g id="PathCollection_1">
    <path d="M 41.048706 266.878202 
C 42.400982 266.878202 43.698054 266.340937 44.654257 265.384734 
C 45.61046 264.428531 46.147725 263.131458 46.147725 261.779183 
C 46.147725 260.426907 45.61046 259.129835 44.654257 258.173631 
C 43.698054 257.217428 42.400982 256.680163 41.048706 256.680163 
C 39.69643 256.680163 38.399358 257.217428 37.443155 258.173631 
C 36.486951 259.129835 35.949686 260.426907 35.949686 261.779183 
C 35.949686 263.131458 36.486951 264.428531 37.443155 265.384734 
C 38.399358 266.340937 39.69643 266.878202 41.048706 266.878202 
z
" clip-path="url(#p4c516e04bd)" style="fill: #1a78b4; stroke: #262626; stroke-width: 0.5"/>
    <path d="M 41.083438 266.876263 
C 42.435199 266.876263 43.731778 266.339203 44.687618 265.383363 
C 45.643457 264.427523 46.180518 263.130944 46.180518 261.779183 
C 46.180518 260.427421 45.643457 259.130842 44.687618 258.175003 
C 43.731778 257.219163 42.435199 256.682102 41.083438 256.682102 
C 39.731676 256.682102 38.435097 257.219163 37.479257 258.175003 
C 36.523418 259.130842 35.986357 260.427421 35.986357 261.779183 
C 35.986357 263.130944 36.523418 264.427523 37.479257 265.383363 
C 38.435097 266.339203 39.731676 266.876263 41.083438 266.876263 
z
" clip-path="url(#p4c516e04bd)" style="fill: #1a78b4; stroke: #262626; stroke-width: 0.5"/>
    <path d="M 41.109616 266.876263 
C 42.461377 266.876263 43.757956 266.339203 44.713796 265.383363 
C 45.669636 264.427523 46.206696 263.130944 46.206696 261.779183 
C 46.206696 260.427421 45.669636 259.130842 44.713796 258.175003 
C 43.757956 257.219163 42.461377 256.682102 41.109616 256.682102 
C 39.757854 256.682102 38.461275 257.219163 37.505436 258.175003 
C 36.549596 259.130842 36.012535 260.427421 36.012535 261.779183 
C 36.012535 263.130944 36.549596 264.427523 37.505436 265.383363 
C 38.461275 266.339203 39.757854 266.876263 41.109616 266.876263 
z
" clip-path="url(#p4c516e04bd)" style="fill: #1a78b4; stroke: #262626; stroke-width: 0.5"/>
    <path d="M 41.137265 266.878202 
C 42.48954 266.878202 43.786613 266.340937 44.742816 265.384734 
C 45.699019 264.428531 46.236284 263.131458 46.236284 261.779183 
C 46.236284 260.426907 45.699019 259.129835 44.742816 258.173631 
C 43.786613 257.217428 42.48954 256.680163 41.137265 256.680163 
C 39.784989 256.680163 38.487917 257.217428 37.531713 258.173631 
C 36.57551 259.129835 36.038245 260.426907 36.038245 261.779183 
C 36.038245 263.131458 36.57551 264.428531 37.531713 265.384734 
C 38.487917 266.340937 39.784989 266.878202 41.137265 266.878202 
z
" clip-path="url(#p4c516e04bd)" style="fill: #1a78b4; stroke: #262626; stroke-width: 0.5"/>
    <path d="M 41.169373 266.876263 
C 42.521134 266.876263 43.817713 266.339203 44.773553 265.383363 
C 45.729392 264.427523 46.266453 263.130944 46.266453 261.779183 
C 46.266453 260.427421 45.729392 259.130842 44.773553 258.175003 
C 43.817713 257.219163 42.521134 256.682102 41.169373 256.682102 
C 39.817611 256.682102 38.521032 257.219163 37.565192 258.175003 
C 36.609353 259.130842 36.072292 260.427421 36.072292 261.779183 
C 36.072292 263.130944 36.609353 264.427523 37.565192 265.383363 
C 38.521032 266.339203 39.817611 266.876263 41.169373 266.876263 
z
" clip-path="url(#p4c516e04bd)" style="fill: #1a78b4; stroke: #262626; stroke-width: 0.5"/>
    <path d="M 41.211011 266.876263 
C 42.562772 266.876263 43.859351 266.339203 44.815191 265.383363 
C 45.771031 264.427523 46.308091 263.130944 46.308091 261.779183 
C 46.308091 260.427421 45.771031 259.130842 44.815191 258.175003 
C 43.859351 257.219163 42.562772 256.682102 41.211011 256.682102 
C 39.859249 256.682102 38.562671 257.219163 37.606831 258.175003 
C 36.650991 259.130842 36.113931 260.427421 36.113931 261.779183 
C 36.113931 263.130944 36.650991 264.427523 37.606831 265.383363 
C 38.562671 266.339203 39.859249 266.876263 41.211011 266.876263 
z
" clip-path="url(#p4c516e04bd)" style="fill: #1a78b4; stroke: #262626; stroke-width: 0.5"/>
    <path d="M 41.268362 266.878202 
C 42.620638 266.878202 43.91771 266.340937 44.873914 265.384734 
C 45.830117 264.428531 46.367382 263.131458 46.367382 261.779183 
C 46.367382 260.426907 45.830117 259.129835 44.873914 258.173631 
C 43.91771 257.217428 42.620638 256.680163 41.268362 256.680163 
C 39.916087 256.680163 38.619014 257.217428 37.662811 258.173631 
C 36.706608 259.129835 36.169343 260.426907 36.169343 261.779183 
C 36.169343 263.131458 36.706608 264.428531 37.662811 265.384734 
C 38.619014 266.340937 39.916087 266.878202 41.268362 266.878202 
z
" clip-path="url(#p4c516e04bd)" style="fill: #1a78b4; stroke: #262626; stroke-width: 0.5"/>
    <path d="M 41.35881 266.876263 
C 42.710571 266.876263 44.00715 266.339203 44.96299 265.383363 
C 45.91883 264.427523 46.45589 263.130944 46.45589 261.779183 
C 46.45589 260.427421 45.91883 259.130842 44.96299 258.175003 
C 44.00715 257.219163 42.710571 256.682102 41.35881 256.682102 
C 40.007048 256.682102 38.710469 257.219163 37.75463 258.175003 
C 36.79879 259.130842 36.261729 260.427421 36.261729 261.779183 
C 36.261729 263.130944 36.79879 264.427523 37.75463 265.383363 
C 38.710469 266.339203 40.007048 266.876263 41.35881 266.876263 
z
" clip-path="url(#p4c516e04bd)" style="fill: #1a78b4; stroke: #262626; stroke-width: 0.5"/>
    <path d="M 41.553392 266.679751 
C 42.905154 266.679751 44.201732 266.14269 45.157572 265.18685 
C 46.113412 264.231011 46.650472 262.934432 46.650472 261.58267 
C 46.650472 260.230909 46.113412 258.93433 45.157572 257.97849 
C 44.201732 257.02265 42.905154 256.48559 41.553392 256.48559 
C 40.201631 256.48559 38.905052 257.02265 37.949212 257.97849 
C 36.993372 258.93433 36.456312 260.230909 36.456312 261.58267 
C 36.456312 262.934432 36.993372 264.231011 37.949212 265.18685 
C 38.905052 266.14269 40.201631 266.679751 41.553392 266.679751 
z
" clip-path="url(#p4c516e04bd)" style="fill: #1a78b4; stroke: #262626; stroke-width: 0.5"/>
    <path d="M 96.986152 208.708588 
C 98.337913 208.708588 99.634492 208.171528 100.590332 207.215688 
C 101.546171 206.259848 102.083232 204.963269 102.083232 203.611508 
C 102.083232 202.259746 101.546171 200.963168 100.590332 200.007328 
C 99.634492 199.051488 98.337913 198.514428 96.986152 198.514428 
C 95.63439 198.514428 94.337811 199.051488 93.381971 200.007328 
C 92.426132 200.963168 91.889071 202.259746 91.889071 203.611508 
C 91.889071 204.963269 92.426132 206.259848 93.381971 207.215688 
C 94.337811 208.171528 95.63439 208.708588 96.986152 208.708588 
z
" clip-path="url(#p4c516e04bd)" style="fill: #1a78b4; stroke: #262626; stroke-width: 0.5"/>
    <path d="M 256.101351 40.220673 
C 256.5989 40.220673 257.076138 40.022994 257.427958 39.671174 
C 257.779778 39.319354 257.977456 38.842116 257.977456 38.344567 
C 257.977456 37.847018 257.779778 37.369781 257.427958 37.01796 
C 257.076138 36.66614 256.5989 36.468462 256.101351 36.468462 
C 255.603802 36.468462 255.126564 36.66614 254.774744 37.01796 
C 254.422924 37.369781 254.225246 37.847018 254.225246 38.344567 
C 254.225246 38.842116 254.422924 39.319354 254.774744 39.671174 
C 255.126564 40.022994 255.603802 40.220673 256.101351 40.220673 
z
" clip-path="url(#p4c516e04bd)" style="fill: #1a78b4; stroke: #262626; stroke-width: 0.5"/>
   </g>
   <g id="text_15">
    <text style="font-size: 11px; font-family: 'Helvetica', 'Arial', 'DejaVu Sans', 'Liberation Sans', sans-serif; fill: #262626" transform="translate(36.5425 15.558281)">Enzyme</text>
    <text style="font-size: 11px; font-family: 'Helvetica', 'Arial', 'DejaVu Sans', 'Liberation Sans', sans-serif; fill: #262626" transform="translate(36.5425 27.875875)">Explorer — GPP: reliability  (n=11374, n+=298)</text>
   </g>
  </g>
 </g>
 <defs>
  <clipPath id="p4c516e04bd">
   <rect x="36.5425" y="33.875875" width="232.372" height="232.372"/>
  </clipPath>
 </defs>
</svg>
