<?xml version="1.0" encoding="utf-8" standalone="no"?>
<!DOCTYPE svg PUBLIC "-//W3C//DTD SVG 1.1//EN"
  "http://www.w3.org/Graphics/SVG/1.1/DTD/svg11.dtd">
<svg xmlns:xlink="http://www.w3.org/1999/xlink" width="384.979184pt" height="226.432875pt" viewBox="0 0 384.979184 226.432875" xmlns="http://www.w3.org/2000/svg" version="1.1">
 <metadata>
  <rdf:RDF xmlns:dc="http://purl.org/dc/elements/1.1/" xmlns:cc="http://creativecommons.org/ns#" xmlns:rdf="http://www.w3.org/1999/02/22-rdf-syntax-ns#">
   <cc:Work>
    <dc:type rdf:resource="http://purl.org/dc/dcmitype/StillImage"/>
    <dc:date>2026-07-27T18:16:40.107369</dc:date>
    <dc:format>image/svg+xml</dc:format>
    <dc:creator>
     <cc:Agent>
      <dc:title>Matplotlib v3.10.1, https://matplotlib.org/</dc:title>
     </cc:Agent>
    </dc:creator>
   </cc:Work>
  </rdf:RDF>
 </metadata>
 <defs>
  <style type="text/css">*{stroke-linejoin: round; stroke-linecap: butt}</style>
 </defs>
 <g id="figure_1">
  <g id="patch_1">
   <path d="M 0 226.432875 
L 384.979184 226.432875 
L 384.979184 0 
L 0 0 
z
" style="fill: #ffffff"/>
  </g>
  <g id="axes_1">
   <g id="patch_2">
    <path d="M 37.730313 194.247875 
L 373.877183 194.247875 
L 373.877183 33.875875 
L 37.730313 33.875875 
z
" style="fill: #ffffff"/>
   </g>
   <g id="matplotlib.axis_1">
    <g id="xtick_1">
     <g id="line2d_1">
      <defs>
       <path id="md0d74764b6" d="M 0 0 
L 0 3 
" style="stroke: #262626; stroke-width: 0.6"/>
      </defs>
      <g>
       <use xlink:href="#md0d74764b6" x="39.394406" y="194.247875" style="fill: #262626; stroke: #262626; stroke-width: 0.6"/>
      </g>
     </g>
     <g id="text_1">
      <text style="font-size: 7px; font-family: 'Helvetica', 'Arial', 'DejaVu Sans', 'Liberation Sans', sans-serif; text-anchor: middle; fill: #262626" x="39.394406" y="206.066781" transform="rotate(-0 39.394406 206.066781)">0.0</text>
     </g>
    </g>
    <g id="xtick_2">
     <g id="line2d_2">
      <g>
       <use xlink:href="#md0d74764b6" x="105.958143" y="194.247875" style="fill: #262626; stroke: #262626; stroke-width: 0.6"/>
      </g>
     </g>
     <g id="text_2">
      <text style="font-size: 7px; font-family: 'Helvetica', 'Arial', 'DejaVu Sans', 'Liberation Sans', sans-serif; text-anchor: middle; fill: #262626" x="105.958143" y="206.066781" transform="rotate(-0 105.958143 206.066781)">0.2</text>
     </g>
    </g>
    <g id="xtick_3">
     <g id="line2d_3">
      <g>
       <use xlink:href="#md0d74764b6" x="172.52188" y="194.247875" style="fill: #262626; stroke: #262626; stroke-width: 0.6"/>
      </g>
     </g>
     <g id="text_3">
      <text style="font-size: 7px; font-family: 'Helvetica', 'Arial', 'DejaVu Sans', 'Liberation Sans', sans-serif; text-anchor: middle; fill: #262626" x="172.52188" y="206.066781" transform="rotate(-0 172.52188 206.066781)">0.4</text>
     </g>
    </g>
    <g id="xtick_4">
     <g id="line2d_4">
      <g>
       <use xlink:href="#md0d74764b6" x="239.085616" y="194.247875" style="fill: #262626; stroke: #262626; stroke-width: 0.6"/>
      </g>
     </g>
     <g id="text_4">
      <text style="font-size: 7px; font-family: 'Helvetica', 'Arial', 'DejaVu Sans', 'Liberation Sans', sans-serif; text-anchor: middle; fill: #262626" x="239.085616" y="206.066781" transform="rotate(-0 239.085616 206.066781)">0.6</text>
     </g>
    </g>
    <g id="xtick_5">
     <g id="line2d_5">
      <g>
       <use xlink:href="#md0d74764b6" x="305.649353" y="194.247875" style="fill: #262626; stroke: #262626; stroke-width: 0.6"/>
      </g>
     </g>
     <g id="text_5">
      <text style="font-size: 7px; font-family: 'Helvetica', 'Arial', 'DejaVu Sans', 'Liberation Sans', sans-serif; text-anchor: middle; fill: #262626" x="305.649353" y="206.066781" transform="rotate(-0 305.649353 206.066781)">0.8</text>
     </g>
    </g>
    <g id="xtick_6">
     <g id="line2d_6">
      <g>
       <use xlink:href="#md0d74764b6" x="372.21309" y="194.247875" style="fill: #262626; stroke: #262626; stroke-width: 0.6"/>
      </g>
     </g>
     <g id="text_6">
      <text style="font-size: 7px; font-family: 'Helvetica', 'Arial', 'DejaVu Sans', 'Liberation Sans', sans-serif; text-anchor: middle; fill: #262626" x="372.21309" y="206.066781" transform="rotate(-0 372.21309 206.066781)">1.0</text>
     </g>
    </g>
    <g id="text_7">
     <text style="font-size: 9px; font-family: 'Helvetica', 'Arial', 'DejaVu Sans', 'Liberation Sans', sans-serif; text-anchor: middle; fill: #262626" x="205.803748" y="217.361156" transform="rotate(-0 205.803748 217.361156)">Raw score s</text>
    </g>
   </g>
   <g id="matplotlib.axis_2">
    <g id="ytick_1">
     <g id="line2d_7">
      <path d="M 37.730313 194.247875 
L 373.877183 194.247875 
" clip-path="url(#p1bc439d743)" style="fill: none; stroke-dasharray: 0.4,0.66; stroke-dashoffset: 0; stroke: #d9d9d9; stroke-opacity: 0.6; stroke-width: 0.4"/>
     </g>
     <g id="line2d_8">
      <defs>
       <path id="ma71c7a31f6" d="M 0 0 
L -3 0 
" style="stroke: #262626; stroke-width: 0.6"/>
      </defs>
      <g>
       <use xlink:href="#ma71c7a31f6" x="37.730313" y="194.247875" style="fill: #262626; stroke: #262626; stroke-width: 0.6"/>
      </g>
     </g>
     <g id="text_8">
      <!-- $\mathdefault{0}$ -->
      <g style="fill: #262626" transform="translate(26.750313 196.907328)">
       <text>
        <tspan x="0" y="-0.796875" style="font-size: 7px; font-family: 'DejaVu Sans'; fill: #262626">0</tspan>
       </text>
      </g>
     </g>
    </g>
    <g id="ytick_2">
     <g id="line2d_9">
      <path d="M 37.730313 158.436547 
L 373.877183 158.436547 
" clip-path="url(#p1bc439d743)" style="fill: none; stroke-dasharray: 0.4,0.66; stroke-dashoffset: 0; stroke: #d9d9d9; stroke-opacity: 0.6; stroke-width: 0.4"/>
     </g>
     <g id="line2d_10">
      <g>
       <use xlink:href="#ma71c7a31f6" x="37.730313" y="158.436547" style="fill: #262626; stroke: #262626; stroke-width: 0.6"/>
      </g>
     </g>
     <g id="text_9">
      <!-- $\mathdefault{10^{0}}$ -->
      <g style="fill: #262626" transform="translate(18.910313 161.096)">
       <text>
        <tspan x="0" y="-0.678125" style="font-size: 7px; font-family: 'DejaVu Sans'; fill: #262626">1</tspan>
        <tspan x="4.453613" y="-0.678125" style="font-size: 7px; font-family: 'DejaVu Sans'; fill: #262626">0</tspan>
        <tspan x="8.974219" y="-3.357812" style="font-size: 4.9px; font-family: 'DejaVu Sans'; fill: #262626">0</tspan>
       </text>
      </g>
     </g>
    </g>
    <g id="ytick_3">
     <g id="line2d_11">
      <path d="M 37.730313 126.206351 
L 373.877183 126.206351 
" clip-path="url(#p1bc439d743)" style="fill: none; stroke-dasharray: 0.4,0.66; stroke-dashoffset: 0; stroke: #d9d9d9; stroke-opacity: 0.6; stroke-width: 0.4"/>
     </g>
     <g id="line2d_12">
      <g>
       <use xlink:href="#ma71c7a31f6" x="37.730313" y="126.206351" style="fill: #262626; stroke: #262626; stroke-width: 0.6"/>
      </g>
     </g>
     <g id="text_10">
      <!-- $\mathdefault{10^{1}}$ -->
      <g style="fill: #262626" transform="translate(18.910313 128.865804)">
       <text>
        <tspan x="0" y="-0.74375" style="font-size: 7px; font-family: 'DejaVu Sans'; fill: #262626">1</tspan>
        <tspan x="4.453613" y="-0.74375" style="font-size: 7px; font-family: 'DejaVu Sans'; fill: #262626">0</tspan>
        <tspan x="8.974219" y="-3.423438" style="font-size: 4.9px; font-family: 'DejaVu Sans'; fill: #262626">1</tspan>
       </text>
      </g>
     </g>
    </g>
    <g id="ytick_4">
     <g id="line2d_13">
      <path d="M 37.730313 93.976156 
L 373.877183 93.976156 
" clip-path="url(#p1bc439d743)" style="fill: none; stroke-dasharray: 0.4,0.66; stroke-dashoffset: 0; stroke: #d9d9d9; stroke-opacity: 0.6; stroke-width: 0.4"/>
     </g>
     <g id="line2d_14">
      <g>
       <use xlink:href="#ma71c7a31f6" x="37.730313" y="93.976156" style="fill: #262626; stroke: #262626; stroke-width: 0.6"/>
      </g>
     </g>
     <g id="text_11">
      <!-- $\mathdefault{10^{2}}$ -->
      <g style="fill: #262626" transform="translate(18.910313 96.635609)">
       <text>
        <tspan x="0" y="-0.678125" style="font-size: 7px; font-family: 'DejaVu Sans'; fill: #262626">1</tspan>
        <tspan x="4.453613" y="-0.678125" style="font-size: 7px; font-family: 'DejaVu Sans'; fill: #262626">0</tspan>
        <tspan x="8.974219" y="-3.357812" style="font-size: 4.9px; font-family: 'DejaVu Sans'; fill: #262626">2</tspan>
       </text>
      </g>
     </g>
    </g>
    <g id="ytick_5">
     <g id="line2d_15">
      <path d="M 37.730313 61.74596 
L 373.877183 61.74596 
" clip-path="url(#p1bc439d743)" style="fill: none; stroke-dasharray: 0.4,0.66; stroke-dashoffset: 0; stroke: #d9d9d9; stroke-opacity: 0.6; stroke-width: 0.4"/>
     </g>
     <g id="line2d_16">
      <g>
       <use xlink:href="#ma71c7a31f6" x="37.730313" y="61.74596" style="fill: #262626; stroke: #262626; stroke-width: 0.6"/>
      </g>
     </g>
     <g id="text_12">
      <!-- $\mathdefault{10^{3}}$ -->
      <g style="fill: #262626" transform="translate(18.910313 64.405413)">
       <text>
        <tspan x="0" y="-0.678125" style="font-size: 7px; font-family: 'DejaVu Sans'; fill: #262626">1</tspan>
        <tspan x="4.453613" y="-0.678125" style="font-size: 7px; font-family: 'DejaVu Sans'; fill: #262626">0</tspan>
        <tspan x="8.974219" y="-3.357812" style="font-size: 4.9px; font-family: 'DejaVu Sans'; fill: #262626">3</tspan>
       </text>
      </g>
     </g>
    </g>
    <g id="text_13">
     <text style="font-size: 9px; font-family: 'Helvetica', 'Arial', 'DejaVu Sans', 'Liberation Sans', sans-serif; text-anchor: middle; fill: #262626" x="14.038594" y="114.061875" transform="rotate(-90 14.038594 114.061875)">Count (symlog)</text>
    </g>
   </g>
   <g id="patch_3">
    <path d="M 39.394406 194.247875 
L 47.714873 194.247875 
L 47.714873 77.392181 
L 39.394406 77.392181 
z
" clip-path="url(#p1bc439d743)" style="fill: #6f6f6f; opacity: 0.65"/>
   </g>
   <g id="patch_4">
    <path d="M 47.714873 194.247875 
L 56.03534 194.247875 
L 56.03534 41.512637 
L 47.714873 41.512637 
z
" clip-path="url(#p1bc439d743)" style="fill: #6f6f6f; opacity: 0.65"/>
   </g>
   <g id="patch_5">
    <path d="M 56.03534 194.247875 
L 64.355807 194.247875 
L 64.355807 45.179118 
L 56.03534 45.179118 
z
" clip-path="url(#p1bc439d743)" style="fill: #6f6f6f; opacity: 0.65"/>
   </g>
   <g id="patch_6">
    <path d="M 64.355807 194.247875 
L 72.676274 194.247875 
L 72.676274 52.205607 
L 64.355807 52.205607 
z
" clip-path="url(#p1bc439d743)" style="fill: #6f6f6f; opacity: 0.65"/>
   </g>
   <g id="patch_7">
    <path d="M 72.676274 194.247875 
L 80.996741 194.247875 
L 80.996741 71.448216 
L 72.676274 71.448216 
z
" clip-path="url(#p1bc439d743)" style="fill: #6f6f6f; opacity: 0.65"/>
   </g>
   <g id="patch_8">
    <path d="M 80.996741 194.247875 
L 89.317209 194.247875 
L 89.317209 92.898901 
L 80.996741 92.898901 
z
" clip-path="url(#p1bc439d743)" style="fill: #6f6f6f; opacity: 0.65"/>
   </g>
   <g id="patch_9">
    <path d="M 89.317209 194.247875 
L 97.637676 194.247875 
L 97.637676 112.831679 
L 89.317209 112.831679 
z
" clip-path="url(#p1bc439d743)" style="fill: #6f6f6f; opacity: 0.65"/>
   </g>
   <g id="patch_10">
    <path d="M 97.637676 194.247875 
L 105.958143 194.247875 
L 105.958143 123.654324 
L 97.637676 123.654324 
z
" clip-path="url(#p1bc439d743)" style="fill: #6f6f6f; opacity: 0.65"/>
   </g>
   <g id="patch_11">
    <path d="M 105.958143 194.247875 
L 114.27861 194.247875 
L 114.27861 123.654324 
L 105.958143 123.654324 
z
" clip-path="url(#p1bc439d743)" style="fill: #6f6f6f; opacity: 0.65"/>
   </g>
   <g id="patch_12">
    <path d="M 114.27861 194.247875 
L 122.599077 194.247875 
L 122.599077 133.35658 
L 114.27861 133.35658 
z
" clip-path="url(#p1bc439d743)" style="fill: #6f6f6f; opacity: 0.65"/>
   </g>
   <g id="patch_13">
    <path d="M 122.599077 194.247875 
L 130.919544 194.247875 
L 130.919544 139.032035 
L 122.599077 139.032035 
z
" clip-path="url(#p1bc439d743)" style="fill: #6f6f6f; opacity: 0.65"/>
   </g>
   <g id="patch_14">
    <path d="M 130.919544 194.247875 
L 139.240011 194.247875 
L 139.240011 148.734291 
L 130.919544 148.734291 
z
" clip-path="url(#p1bc439d743)" style="fill: #6f6f6f; opacity: 0.65"/>
   </g>
   <g id="patch_15">
    <path d="M 139.240011 194.247875 
L 147.560478 194.247875 
L 147.560478 143.058835 
L 139.240011 143.058835 
z
" clip-path="url(#p1bc439d743)" style="fill: #6f6f6f; opacity: 0.65"/>
   </g>
   <g id="patch_16">
    <path d="M 147.560478 194.247875 
L 155.880945 194.247875 
L 155.880945 139.032035 
L 147.560478 139.032035 
z
" clip-path="url(#p1bc439d743)" style="fill: #6f6f6f; opacity: 0.65"/>
   </g>
   <g id="patch_17">
    <path d="M 155.880945 194.247875 
L 164.201412 194.247875 
L 164.201412 194.247875 
L 155.880945 194.247875 
z
" clip-path="url(#p1bc439d743)" style="fill: #6f6f6f; opacity: 0.65"/>
   </g>
   <g id="patch_18">
    <path d="M 164.201412 194.247875 
L 172.52188 194.247875 
L 172.52188 135.908607 
L 164.201412 135.908607 
z
" clip-path="url(#p1bc439d743)" style="fill: #6f6f6f; opacity: 0.65"/>
   </g>
   <g id="patch_19">
    <path d="M 172.52188 194.247875 
L 180.842347 194.247875 
L 180.842347 131.198872 
L 172.52188 131.198872 
z
" clip-path="url(#p1bc439d743)" style="fill: #6f6f6f; opacity: 0.65"/>
   </g>
   <g id="patch_20">
    <path d="M 180.842347 194.247875 
L 189.162814 194.247875 
L 189.162814 133.35658 
L 180.842347 133.35658 
z
" clip-path="url(#p1bc439d743)" style="fill: #6f6f6f; opacity: 0.65"/>
   </g>
   <g id="patch_21">
    <path d="M 189.162814 194.247875 
L 197.483281 194.247875 
L 197.483281 126.206351 
L 189.162814 126.206351 
z
" clip-path="url(#p1bc439d743)" style="fill: #6f6f6f; opacity: 0.65"/>
   </g>
   <g id="patch_22">
    <path d="M 197.483281 194.247875 
L 205.803748 194.247875 
L 205.803748 122.533935 
L 197.483281 122.533935 
z
" clip-path="url(#p1bc439d743)" style="fill: #6f6f6f; opacity: 0.65"/>
   </g>
   <g id="patch_23">
    <path d="M 205.803748 194.247875 
L 214.124215 194.247875 
L 214.124215 129.32978 
L 205.803748 129.32978 
z
" clip-path="url(#p1bc439d743)" style="fill: #6f6f6f; opacity: 0.65"/>
   </g>
   <g id="patch_24">
    <path d="M 214.124215 194.247875 
L 222.444682 194.247875 
L 222.444682 117.222068 
L 214.124215 117.222068 
z
" clip-path="url(#p1bc439d743)" style="fill: #6f6f6f; opacity: 0.65"/>
   </g>
   <g id="patch_25">
    <path d="M 222.444682 194.247875 
L 230.765149 194.247875 
L 230.765149 113.380667 
L 222.444682 113.380667 
z
" clip-path="url(#p1bc439d743)" style="fill: #6f6f6f; opacity: 0.65"/>
   </g>
   <g id="patch_26">
    <path d="M 230.765149 194.247875 
L 239.085616 194.247875 
L 239.085616 122.533935 
L 230.765149 122.533935 
z
" clip-path="url(#p1bc439d743)" style="fill: #6f6f6f; opacity: 0.65"/>
   </g>
   <g id="patch_27">
    <path d="M 239.085616 194.247875 
L 247.406083 194.247875 
L 247.406083 113.380667 
L 239.085616 113.380667 
z
" clip-path="url(#p1bc439d743)" style="fill: #6f6f6f; opacity: 0.65"/>
   </g>
   <g id="patch_28">
    <path d="M 247.406083 194.247875 
L 255.726551 194.247875 
L 255.726551 112.831679 
L 247.406083 112.831679 
z
" clip-path="url(#p1bc439d743)" style="fill: #6f6f6f; opacity: 0.65"/>
   </g>
   <g id="patch_29">
    <path d="M 255.726551 194.247875 
L 264.047018 194.247875 
L 264.047018 104.249813 
L 255.726551 104.249813 
z
" clip-path="url(#p1bc439d743)" style="fill: #6f6f6f; opacity: 0.65"/>
   </g>
   <g id="patch_30">
    <path d="M 264.047018 194.247875 
L 272.367485 194.247875 
L 272.367485 111.303173 
L 264.047018 111.303173 
z
" clip-path="url(#p1bc439d743)" style="fill: #6f6f6f; opacity: 0.65"/>
   </g>
   <g id="patch_31">
    <path d="M 272.367485 194.247875 
L 280.687952 194.247875 
L 280.687952 124.872257 
L 272.367485 124.872257 
z
" clip-path="url(#p1bc439d743)" style="fill: #6f6f6f; opacity: 0.65"/>
   </g>
   <g id="patch_32">
    <path d="M 280.687952 194.247875 
L 289.008419 194.247875 
L 289.008419 122.533935 
L 280.687952 122.533935 
z
" clip-path="url(#p1bc439d743)" style="fill: #6f6f6f; opacity: 0.65"/>
   </g>
   <g id="patch_33">
    <path d="M 289.008419 194.247875 
L 297.328886 194.247875 
L 297.328886 133.35658 
L 289.008419 133.35658 
z
" clip-path="url(#p1bc439d743)" style="fill: #6f6f6f; opacity: 0.65"/>
   </g>
   <g id="patch_34">
    <path d="M 297.328886 194.247875 
L 305.649353 194.247875 
L 305.649353 127.681124 
L 297.328886 127.681124 
z
" clip-path="url(#p1bc439d743)" style="fill: #6f6f6f; opacity: 0.65"/>
   </g>
   <g id="patch_35">
    <path d="M 305.649353 194.247875 
L 313.96982 194.247875 
L 313.96982 133.35658 
L 305.649353 133.35658 
z
" clip-path="url(#p1bc439d743)" style="fill: #6f6f6f; opacity: 0.65"/>
   </g>
   <g id="patch_36">
    <path d="M 313.96982 194.247875 
L 322.290287 194.247875 
L 322.290287 139.032035 
L 313.96982 139.032035 
z
" clip-path="url(#p1bc439d743)" style="fill: #6f6f6f; opacity: 0.65"/>
   </g>
   <g id="patch_37">
    <path d="M 322.290287 194.247875 
L 330.610754 194.247875 
L 330.610754 158.436547 
L 322.290287 158.436547 
z
" clip-path="url(#p1bc439d743)" style="fill: #6f6f6f; opacity: 0.65"/>
   </g>
   <g id="patch_38">
    <path d="M 330.610754 194.247875 
L 338.931222 194.247875 
L 338.931222 194.247875 
L 330.610754 194.247875 
z
" clip-path="url(#p1bc439d743)" style="fill: #6f6f6f; opacity: 0.65"/>
   </g>
   <g id="patch_39">
    <path d="M 338.931222 194.247875 
L 347.251689 194.247875 
L 347.251689 158.436547 
L 338.931222 158.436547 
z
" clip-path="url(#p1bc439d743)" style="fill: #6f6f6f; opacity: 0.65"/>
   </g>
   <g id="patch_40">
    <path d="M 347.251689 194.247875 
L 355.572156 194.247875 
L 355.572156 158.436547 
L 347.251689 158.436547 
z
" clip-path="url(#p1bc439d743)" style="fill: #6f6f6f; opacity: 0.65"/>
   </g>
   <g id="patch_41">
    <path d="M 355.572156 194.247875 
L 363.892623 194.247875 
L 363.892623 194.247875 
L 355.572156 194.247875 
z
" clip-path="url(#p1bc439d743)" style="fill: #6f6f6f; opacity: 0.65"/>
   </g>
   <g id="patch_42">
    <path d="M 363.892623 194.247875 
L 372.21309 194.247875 
L 372.21309 194.247875 
L 363.892623 194.247875 
z
" clip-path="url(#p1bc439d743)" style="fill: #6f6f6f; opacity: 0.65"/>
   </g>
   <g id="patch_43">
    <path d="M 39.394406 194.247875 
L 47.714873 194.247875 
L 47.714873 194.247875 
L 39.394406 194.247875 
z
" clip-path="url(#p1bc439d743)" style="fill: #d9544d; opacity: 0.75"/>
   </g>
   <g id="patch_44">
    <path d="M 47.714873 194.247875 
L 56.03534 194.247875 
L 56.03534 194.247875 
L 47.714873 194.247875 
z
" clip-path="url(#p1bc439d743)" style="fill: #d9544d; opacity: 0.75"/>
   </g>
   <g id="patch_45">
    <path d="M 56.03534 194.247875 
L 64.355807 194.247875 
L 64.355807 194.247875 
L 56.03534 194.247875 
z
" clip-path="url(#p1bc439d743)" style="fill: #d9544d; opacity: 0.75"/>
   </g>
   <g id="patch_46">
    <path d="M 64.355807 194.247875 
L 72.676274 194.247875 
L 72.676274 139.032035 
L 64.355807 139.032035 
z
" clip-path="url(#p1bc439d743)" style="fill: #d9544d; opacity: 0.75"/>
   </g>
   <g id="patch_47">
    <path d="M 72.676274 194.247875 
L 80.996741 194.247875 
L 80.996741 139.032035 
L 72.676274 139.032035 
z
" clip-path="url(#p1bc439d743)" style="fill: #d9544d; opacity: 0.75"/>
   </g>
   <g id="patch_48">
    <path d="M 80.996741 194.247875 
L 89.317209 194.247875 
L 89.317209 148.734291 
L 80.996741 148.734291 
z
" clip-path="url(#p1bc439d743)" style="fill: #d9544d; opacity: 0.75"/>
   </g>
   <g id="patch_49">
    <path d="M 89.317209 194.247875 
L 97.637676 194.247875 
L 97.637676 148.734291 
L 89.317209 148.734291 
z
" clip-path="url(#p1bc439d743)" style="fill: #d9544d; opacity: 0.75"/>
   </g>
   <g id="patch_50">
    <path d="M 97.637676 194.247875 
L 105.958143 194.247875 
L 105.958143 158.436547 
L 97.637676 158.436547 
z
" clip-path="url(#p1bc439d743)" style="fill: #d9544d; opacity: 0.75"/>
   </g>
   <g id="patch_51">
    <path d="M 105.958143 194.247875 
L 114.27861 194.247875 
L 114.27861 158.436547 
L 105.958143 158.436547 
z
" clip-path="url(#p1bc439d743)" style="fill: #d9544d; opacity: 0.75"/>
   </g>
   <g id="patch_52">
    <path d="M 114.27861 194.247875 
L 122.599077 194.247875 
L 122.599077 194.247875 
L 114.27861 194.247875 
z
" clip-path="url(#p1bc439d743)" style="fill: #d9544d; opacity: 0.75"/>
   </g>
   <g id="patch_53">
    <path d="M 122.599077 194.247875 
L 130.919544 194.247875 
L 130.919544 139.032035 
L 122.599077 139.032035 
z
" clip-path="url(#p1bc439d743)" style="fill: #d9544d; opacity: 0.75"/>
   </g>
   <g id="patch_54">
    <path d="M 130.919544 194.247875 
L 139.240011 194.247875 
L 139.240011 143.058835 
L 130.919544 143.058835 
z
" clip-path="url(#p1bc439d743)" style="fill: #d9544d; opacity: 0.75"/>
   </g>
   <g id="patch_55">
    <path d="M 139.240011 194.247875 
L 147.560478 194.247875 
L 147.560478 148.734291 
L 139.240011 148.734291 
z
" clip-path="url(#p1bc439d743)" style="fill: #d9544d; opacity: 0.75"/>
   </g>
   <g id="patch_56">
    <path d="M 147.560478 194.247875 
L 155.880945 194.247875 
L 155.880945 158.436547 
L 147.560478 158.436547 
z
" clip-path="url(#p1bc439d743)" style="fill: #d9544d; opacity: 0.75"/>
   </g>
   <g id="patch_57">
    <path d="M 155.880945 194.247875 
L 164.201412 194.247875 
L 164.201412 158.436547 
L 155.880945 158.436547 
z
" clip-path="url(#p1bc439d743)" style="fill: #d9544d; opacity: 0.75"/>
   </g>
   <g id="patch_58">
    <path d="M 164.201412 194.247875 
L 172.52188 194.247875 
L 172.52188 148.734291 
L 164.201412 148.734291 
z
" clip-path="url(#p1bc439d743)" style="fill: #d9544d; opacity: 0.75"/>
   </g>
   <g id="patch_59">
    <path d="M 172.52188 194.247875 
L 180.842347 194.247875 
L 180.842347 158.436547 
L 172.52188 158.436547 
z
" clip-path="url(#p1bc439d743)" style="fill: #d9544d; opacity: 0.75"/>
   </g>
   <g id="patch_60">
    <path d="M 180.842347 194.247875 
L 189.162814 194.247875 
L 189.162814 139.032035 
L 180.842347 139.032035 
z
" clip-path="url(#p1bc439d743)" style="fill: #d9544d; opacity: 0.75"/>
   </g>
   <g id="patch_61">
    <path d="M 189.162814 194.247875 
L 197.483281 194.247875 
L 197.483281 158.436547 
L 189.162814 158.436547 
z
" clip-path="url(#p1bc439d743)" style="fill: #d9544d; opacity: 0.75"/>
   </g>
   <g id="patch_62">
    <path d="M 197.483281 194.247875 
L 205.803748 194.247875 
L 205.803748 139.032035 
L 197.483281 139.032035 
z
" clip-path="url(#p1bc439d743)" style="fill: #d9544d; opacity: 0.75"/>
   </g>
   <g id="patch_63">
    <path d="M 205.803748 194.247875 
L 214.124215 194.247875 
L 214.124215 133.35658 
L 205.803748 133.35658 
z
" clip-path="url(#p1bc439d743)" style="fill: #d9544d; opacity: 0.75"/>
   </g>
   <g id="patch_64">
    <path d="M 214.124215 194.247875 
L 222.444682 194.247875 
L 222.444682 133.35658 
L 214.124215 133.35658 
z
" clip-path="url(#p1bc439d743)" style="fill: #d9544d; opacity: 0.75"/>
   </g>
   <g id="patch_65">
    <path d="M 222.444682 194.247875 
L 230.765149 194.247875 
L 230.765149 121.496616 
L 222.444682 121.496616 
z
" clip-path="url(#p1bc439d743)" style="fill: #d9544d; opacity: 0.75"/>
   </g>
   <g id="patch_66">
    <path d="M 230.765149 194.247875 
L 239.085616 194.247875 
L 239.085616 118.778937 
L 230.765149 118.778937 
z
" clip-path="url(#p1bc439d743)" style="fill: #d9544d; opacity: 0.75"/>
   </g>
   <g id="patch_67">
    <path d="M 239.085616 194.247875 
L 247.406083 194.247875 
L 247.406083 124.872257 
L 239.085616 124.872257 
z
" clip-path="url(#p1bc439d743)" style="fill: #d9544d; opacity: 0.75"/>
   </g>
   <g id="patch_68">
    <path d="M 247.406083 194.247875 
L 255.726551 194.247875 
L 255.726551 113.380667 
L 247.406083 113.380667 
z
" clip-path="url(#p1bc439d743)" style="fill: #d9544d; opacity: 0.75"/>
   </g>
   <g id="patch_69">
    <path d="M 255.726551 194.247875 
L 264.047018 194.247875 
L 264.047018 120.530895 
L 255.726551 120.530895 
z
" clip-path="url(#p1bc439d743)" style="fill: #d9544d; opacity: 0.75"/>
   </g>
   <g id="patch_70">
    <path d="M 264.047018 194.247875 
L 272.367485 194.247875 
L 272.367485 117.978868 
L 264.047018 117.978868 
z
" clip-path="url(#p1bc439d743)" style="fill: #d9544d; opacity: 0.75"/>
   </g>
   <g id="patch_71">
    <path d="M 272.367485 194.247875 
L 280.687952 194.247875 
L 280.687952 115.82116 
L 272.367485 115.82116 
z
" clip-path="url(#p1bc439d743)" style="fill: #d9544d; opacity: 0.75"/>
   </g>
   <g id="patch_72">
    <path d="M 280.687952 194.247875 
L 289.008419 194.247875 
L 289.008419 108.276613 
L 280.687952 108.276613 
z
" clip-path="url(#p1bc439d743)" style="fill: #d9544d; opacity: 0.75"/>
   </g>
   <g id="patch_73">
    <path d="M 289.008419 194.247875 
L 297.328886 194.247875 
L 297.328886 102.601157 
L 289.008419 102.601157 
z
" clip-path="url(#p1bc439d743)" style="fill: #d9544d; opacity: 0.75"/>
   </g>
   <g id="patch_74">
    <path d="M 297.328886 194.247875 
L 305.649353 194.247875 
L 305.649353 105.153184 
L 297.328886 105.153184 
z
" clip-path="url(#p1bc439d743)" style="fill: #d9544d; opacity: 0.75"/>
   </g>
   <g id="patch_75">
    <path d="M 305.649353 194.247875 
L 313.96982 194.247875 
L 313.96982 112.831679 
L 305.649353 112.831679 
z
" clip-path="url(#p1bc439d743)" style="fill: #d9544d; opacity: 0.75"/>
   </g>
   <g id="patch_76">
    <path d="M 313.96982 194.247875 
L 322.290287 194.247875 
L 322.290287 106.80184 
L 313.96982 106.80184 
z
" clip-path="url(#p1bc439d743)" style="fill: #d9544d; opacity: 0.75"/>
   </g>
   <g id="patch_77">
    <path d="M 322.290287 194.247875 
L 330.610754 194.247875 
L 330.610754 107.893098 
L 322.290287 107.893098 
z
" clip-path="url(#p1bc439d743)" style="fill: #d9544d; opacity: 0.75"/>
   </g>
   <g id="patch_78">
    <path d="M 330.610754 194.247875 
L 338.931222 194.247875 
L 338.931222 103.678411 
L 330.610754 103.678411 
z
" clip-path="url(#p1bc439d743)" style="fill: #d9544d; opacity: 0.75"/>
   </g>
   <g id="patch_79">
    <path d="M 338.931222 194.247875 
L 347.251689 194.247875 
L 347.251689 99.581799 
L 338.931222 99.581799 
z
" clip-path="url(#p1bc439d743)" style="fill: #d9544d; opacity: 0.75"/>
   </g>
   <g id="patch_80">
    <path d="M 347.251689 194.247875 
L 355.572156 194.247875 
L 355.572156 98.574357 
L 347.251689 98.574357 
z
" clip-path="url(#p1bc439d743)" style="fill: #d9544d; opacity: 0.75"/>
   </g>
   <g id="patch_81">
    <path d="M 355.572156 194.247875 
L 363.892623 194.247875 
L 363.892623 194.247875 
L 355.572156 194.247875 
z
" clip-path="url(#p1bc439d743)" style="fill: #d9544d; opacity: 0.75"/>
   </g>
   <g id="patch_82">
    <path d="M 363.892623 194.247875 
L 372.21309 194.247875 
L 372.21309 194.247875 
L 363.892623 194.247875 
z
" clip-path="url(#p1bc439d743)" style="fill: #d9544d; opacity: 0.75"/>
   </g>
   <g id="patch_83">
    <path d="M 37.730313 194.247875 
L 37.730313 33.875875 
" style="fill: none; stroke: #262626; stroke-width: 0.6; stroke-linejoin: miter; stroke-linecap: square"/>
   </g>
   <g id="patch_84">
    <path d="M 37.730313 194.247875 
L 373.877183 194.247875 
" style="fill: none; stroke: #262626; stroke-width: 0.6; stroke-linejoin: miter; stroke-linecap: square"/>
   </g>
   <g id="text_14">
    <text style="font-size: 11px; font-family: 'Helvetica', 'Arial', 'DejaVu Sans', 'Liberation Sans', sans-serif; fill: #262626" transform="translate(37.730313 15.558281)">Enzyme</text>
    <text style="font-size: 11px; font-family: 'Helvetica', 'Arial', 'DejaVu Sans', 'Liberation Sans', sans-serif; fill: #262626" transform="translate(37.730313 27.875875)">Explorer — FPP: OOF score distribution</text>
   </g>
   <g id="legend_1">
    <g id="patch_85">
     <path d="M 156.420623 46.354625 
L 166.020623 46.354625 
L 166.020623 40.754625 
L 156.420623 40.754625 
z
" style="fill: #6f6f6f; opacity: 0.65"/>
    </g>
    <g id="text_15">
     <text style="font-size: 8px; font-family: 'Helvetica', 'Arial', 'DejaVu Sans', 'Liberation Sans', sans-serif; text-anchor: start; fill: #262626" x="170.020623" y="46.354625" transform="rotate(-0 170.020623 46.354625)">negatives (n=10777)</text>
    </g>
    <g id="patch_86">
     <path d="M 156.420623 58.097125 
L 166.020623 58.097125 
L 166.020623 52.497125 
L 156.420623 52.497125 
z
" style="fill: #d9544d; opacity: 0.75"/>
    </g>
    <g id="text_16">
     <text style="font-size: 8px; font-family: 'Helvetica', 'Arial', 'DejaVu Sans', 'Liberation Sans', sans-serif; text-anchor: start; fill: #262626" x="170.020623" y="58.097125" transform="rotate(-0 170.020623 58.097125)">positives (n=597)</text>
    </g>
   </g>
  </g>
 </g>
 <defs>
  <clipPath id="p1bc439d743">
   <rect x="37.730313" y="33.875875" width="336.146871" height="160.372"/>
  </clipPath>
 </defs>
</svg>
